<svg id="Capa_1" enable-background="new 0 0 512 512" height="512" viewBox="0 0 512 512" width="512" xmlns="http://www.w3.org/2000/svg"><g><path d="m388.337 180.499c-4.143 0-7.5 3.358-7.5 7.5v58.274c1.006 12.331-14.988 56.163-17.96 68.493h-73.939c-13.271 0-24.067 10.796-24.067 24.067 0 13.27 10.797 24.066 24.067 24.066h59.499l-13.442 44.806c-1.159 3.864-4.649 6.46-8.685 6.46h-141.013c-4.035 0-7.525-2.596-8.685-6.461l-13.442-44.804h59.499c4.143 0 7.5-3.358 7.5-7.5s-3.357-7.5-7.5-7.5h-63.999s-3.836-12.788-3.836-12.788c-2.658-9.348-17.303-4.979-14.367 4.311 3.623 12.15 17.893 59.589 21.778 72.592 2.759 9.2 10.499 15.676 19.792 16.918v17.867c.3 23.309 35.475 13.6 49.7 15.5 1.835 14.319-7.733 49.433 15.783 49.7h16.567c23.538-.29 13.939-35.381 15.783-49.7 14.247-1.896 49.406 7.798 49.7-15.499 0-.001 0-17.868 0-17.868 9.293-1.242 17.033-7.717 19.792-16.917 3.755-12.505 23.008-76.7 26.278-87.594 3.754-15.34 21.329-62.686 20.197-78.148v-58.275c0-4.142-3.358-7.5-7.5-7.5zm-123.467 315.718c.788 1.696-16.975.401-17.349.784-.432-.001-.783-.352-.783-.784v-33.917h18.133v33.917zm49.7-49.417c-.287.974-117.189.965-117.533.003-.001-.003-.001-17.636-.001-17.636h117.534zm38.366-98.9h-63.999c-5 0-9.067-4.067-9.067-9.066s4.067-9.067 9.067-9.067h69.439c-1.248 4.162-4.164 13.88-5.44 18.133z"/><path d="m355.204 82.834h-25.634v-17.633c-.3-23.309-35.475-13.6-49.7-15.5-1.835-14.319 7.733-49.433-15.783-49.7h-16.567c-23.538.29-13.939 35.381-15.783 49.7-14.247 1.895-49.406-7.798-49.7 15.499v17.634c-31.503-2.261-64.328 1.909-66.267 40.635 0-.002 0 33.132 0 33.132-.03 20.156.022 69.002 0 89.674-.978 14.968 12.018 48.605 15.696 63.149 2.712 9.349 17.292 4.973 14.367-4.312-2.954-11.944-15.702-46.189-15.051-58.177h58.755c4.143 0 7.5-3.358 7.5-7.5s-3.357-7.5-7.5-7.5h-58.767v-34.7c21.143-1.831 65.596 9.57 66.266-24.067-.637-33.622-45.198-22.245-66.266-24.066-.295-21.233-3.779-49.88 25.634-51.266-.001 0 198.8 0 198.8 0 11.525 0 21.296 7.647 24.511 18.133h-90.778c-4.143 0-7.5 3.358-7.5 7.5s3.357 7.5 7.5 7.5h91.899v27.534c-.143 9.721 15.144 9.738 15-.001 1.112-33.149 3.495-73.309-40.632-75.668zm-182.233 81.266c11.758-.161 11.761 18.296-.001 18.133h-42.199v-18.133zm73.766-148.317c-.788-1.696 16.975-.401 17.349-.784.432.001.783.352.783.784v33.917h-18.133v-33.917zm-49.7 67.051v-17.634c0-.276.225-.5.5-.5.625.509 117.046-.965 117.032.499.001.001.001 17.635.001 17.635z"/><path d="m338.637 197.233c9.712.142 9.745-15.143-.001-15h-66.266c-9.712-.142-9.745 15.143.001 15-.001 0 66.266 0 66.266 0z"/><path d="m255.804 296.633c9.717.142 9.742-15.143-.001-15h-49.699c-9.717-.142-9.742 15.143.001 15-.002 0 49.699 0 49.699 0z"/></g></svg>